<svg xmlns="http://www.w3.org/2000/svg" width="31.587" height="31.587" viewBox="0 0 31.587 31.587">
  <path id="Icon_metro-target" data-name="Icon metro-target" d="M34.158,15.748H31.045A12.863,12.863,0,0,0,20.339,5.041V1.928H16.39V5.041A12.863,12.863,0,0,0,5.684,15.748H2.571V19.7H5.684A12.863,12.863,0,0,0,16.39,30.4v3.113h3.948V30.4A12.863,12.863,0,0,0,31.045,19.7h3.113V15.748Zm-7.131,0H23.95a5.939,5.939,0,0,0-3.611-3.611V9.059a8.913,8.913,0,0,1,6.688,6.688ZM18.364,19.7a1.974,1.974,0,1,1,1.974-1.974A1.974,1.974,0,0,1,18.364,19.7ZM16.39,9.059v3.077a5.938,5.938,0,0,0-3.611,3.611H9.7A8.913,8.913,0,0,1,16.39,9.059ZM9.7,19.7h3.077a5.938,5.938,0,0,0,3.611,3.611v3.077A8.913,8.913,0,0,1,9.7,19.7Zm10.637,6.688V23.307A5.939,5.939,0,0,0,23.95,19.7h3.077A8.913,8.913,0,0,1,20.339,26.384Z" transform="translate(-2.571 -1.928)" fill="#e50d36"/>
</svg>
