<svg xmlns="http://www.w3.org/2000/svg" width="31.507" height="18" viewBox="0 0 31.507 18">
  <path id="Icon_ionic-ios-trending-up" data-name="Icon ionic-ios-trending-up" d="M32.688,9H24.195a1.041,1.041,0,1,0,0,2.081H30.08l-9.7,10-6.04-5.913a1.064,1.064,0,0,0-.752-.3,1.076,1.076,0,0,0-.752.3L2.545,25.228a1.017,1.017,0,0,0-.3.752.954.954,0,0,0,.3.717A1.064,1.064,0,0,0,3.3,27a1.076,1.076,0,0,0,.752-.3l9.534-9.33,6.04,5.913a1.064,1.064,0,0,0,.752.3,1.076,1.076,0,0,0,.752-.3l10.5-10.68v5.745a1.062,1.062,0,0,0,2.123,0v-8.3A1.063,1.063,0,0,0,32.688,9Z" transform="translate(-2.25 -9)" fill="#e51038"/>
</svg>
