<svg xmlns="http://www.w3.org/2000/svg" width="25.756" height="25.756" viewBox="0 0 25.756 25.756">
  <path id="Icon_awesome-bullseye" data-name="Icon awesome-bullseye" d="M12.878.563A12.878,12.878,0,1,0,25.756,13.441,12.878,12.878,0,0,0,12.878.563Zm0,22.433a9.555,9.555,0,1,1,9.555-9.555A9.549,9.549,0,0,1,12.878,23Zm0-16.2a6.647,6.647,0,1,0,6.647,6.647A6.647,6.647,0,0,0,12.878,6.794Zm0,9.97A3.323,3.323,0,1,1,16.2,13.441,3.327,3.327,0,0,1,12.878,16.764Z" transform="translate(0 -0.563)" fill="#e50b34"/>
</svg>
