<svg xmlns="http://www.w3.org/2000/svg" width="38.124" height="55.453" viewBox="0 0 38.124 55.453">
  <g id="Group_5878" data-name="Group 5878" transform="translate(98.327 15.304)">
    <g id="Group_5863" data-name="Group 5863" transform="translate(-98.327 -15.304)">
      <path id="Icon_metro-mobile" data-name="Icon metro-mobile" d="M41.085,1.928H9.893A3.476,3.476,0,0,0,6.427,5.394V53.915a3.476,3.476,0,0,0,3.466,3.466H41.085a3.476,3.476,0,0,0,3.466-3.466V5.394A3.476,3.476,0,0,0,41.085,1.928Zm-15.6,52.95a2.7,2.7,0,1,1,2.7-2.7A2.7,2.7,0,0,1,25.489,54.878Zm15.6-7.894H9.893V8.86H41.085Z" transform="translate(-6.427 -1.928)" fill="#e62045"/>
    </g>
  </g>
</svg>
