<svg xmlns="http://www.w3.org/2000/svg" width="47.169" height="47.168" viewBox="0 0 47.169 47.168">
  <path id="wireframes" d="M45.787,38.877H41.549V34.731a1.382,1.382,0,0,0-1.382-1.382h-15.2V29.684L32.853,21.8a1.381,1.381,0,0,0,0-1.954l-7.886-7.887V8.291h6.909a1.382,1.382,0,0,0,1.382-1.382V1.382A1.382,1.382,0,0,0,31.876,0H15.293a1.382,1.382,0,0,0-1.382,1.382V6.909a1.382,1.382,0,0,0,1.382,1.382H22.2v3.665l-7.886,7.887a1.381,1.381,0,0,0,0,1.954L22.2,29.684V33.35H6.909a1.382,1.382,0,0,0-1.382,1.382v4.146H1.382A1.382,1.382,0,0,0,0,40.259v5.528a1.382,1.382,0,0,0,1.382,1.382H12.437a1.382,1.382,0,0,0,1.382-1.382V40.259a1.382,1.382,0,0,0-1.382-1.382H8.291V36.113H22.2v3a4.146,4.146,0,1,0,2.764,0v-3H38.785v2.764H34.639a1.382,1.382,0,0,0-1.382,1.382v5.528a1.382,1.382,0,0,0,1.382,1.382H45.787a1.382,1.382,0,0,0,1.382-1.382V40.259A1.382,1.382,0,0,0,45.787,38.877ZM11.055,41.641V44.4H2.764V41.641Zm5.62-36.113V2.764H30.494V5.527ZM23.584,44.4a1.382,1.382,0,1,1,1.382-1.382A1.384,1.384,0,0,1,23.584,44.4Zm0-17.247L17.247,20.82l6.337-6.337,6.337,6.337ZM44.4,44.4H36.021V41.641H44.4Zm0,0" fill="#e62247"/>
</svg>
