<svg xmlns="http://www.w3.org/2000/svg" width="48.423" height="48.423" viewBox="0 0 48.423 48.423">
  <g id="Group_5777" data-name="Group 5777" transform="translate(0)">
    <g id="Group_5776" data-name="Group 5776" transform="translate(0 0)">
      <g id="Group_5769" data-name="Group 5769" transform="translate(26.413)">
        <path id="Path_2932" data-name="Path 2932" d="M-1214.382,504.823a4.391,4.391,0,0,1-1.289,3.113,4.391,4.391,0,0,1-3.113,1.289,4.39,4.39,0,0,1-3.113-1.289,4.39,4.39,0,0,1-1.289-3.095v-.018a8.823,8.823,0,0,0-8.8-8.8h-.018a4.39,4.39,0,0,1-3.095-1.289,4.39,4.39,0,0,1-1.289-3.113,4.4,4.4,0,0,1,4.4-4.4,4.39,4.39,0,0,1,3.113,1.289,4.389,4.389,0,0,1,1.289,3.095v.018a8.823,8.823,0,0,0,8.8,8.8h.019a4.391,4.391,0,0,1,3.095,1.289A4.392,4.392,0,0,1-1214.382,504.823Z" transform="translate(1236.393 -487.215)" fill="#e5002b"/>
      </g>
      <g id="Group_5771" data-name="Group 5771" transform="translate(13.206)">
        <g id="Group_5770" data-name="Group 5770">
          <path id="Path_2933" data-name="Path 2933" d="M-1263.686,504.823a4.39,4.39,0,0,1-1.289,3.113,4.39,4.39,0,0,1-3.113,1.289,4.391,4.391,0,0,1-3.113-1.289,4.39,4.39,0,0,1-1.289-3.095v-.018a8.823,8.823,0,0,0-8.8-8.8h-.019a4.389,4.389,0,0,1-3.094-1.289,4.39,4.39,0,0,1-1.289-3.113,4.4,4.4,0,0,1,4.4-4.4,4.39,4.39,0,0,1,3.113,1.289,4.39,4.39,0,0,1,1.289,3.095v.018a8.823,8.823,0,0,0,8.8,8.8h.019a4.39,4.39,0,0,1,3.094,1.289A4.391,4.391,0,0,1-1263.686,504.823Z" transform="translate(1285.697 -487.215)" fill="#e5002b"/>
        </g>
      </g>
      <g id="Group_5772" data-name="Group 5772" transform="translate(13.206 13.206)">
        <path id="Path_2934" data-name="Path 2934" d="M-1263.686,554.126a4.39,4.39,0,0,1-1.289,3.113,4.39,4.39,0,0,1-3.113,1.289,4.391,4.391,0,0,1-3.113-1.289,4.389,4.389,0,0,1-1.289-3.094v-.019a8.823,8.823,0,0,0-8.8-8.8h-.019a4.39,4.39,0,0,1-3.094-1.289,4.391,4.391,0,0,1-1.289-3.113,4.4,4.4,0,0,1,4.4-4.4,4.391,4.391,0,0,1,3.113,1.289,4.39,4.39,0,0,1,1.289,3.095v.019a8.823,8.823,0,0,0,8.8,8.8h.019a4.389,4.389,0,0,1,3.094,1.289A4.39,4.39,0,0,1-1263.686,554.126Z" transform="translate(1285.697 -536.518)" fill="#e5002b"/>
      </g>
      <g id="Group_5774" data-name="Group 5774" transform="translate(0 13.206)">
        <g id="Group_5773" data-name="Group 5773">
          <path id="Path_2935" data-name="Path 2935" d="M-1312.99,554.126a4.39,4.39,0,0,1-1.289,3.113,4.39,4.39,0,0,1-3.113,1.289,4.39,4.39,0,0,1-3.113-1.289,4.389,4.389,0,0,1-1.289-3.094v-.019a8.823,8.823,0,0,0-8.8-8.8h-.018a4.391,4.391,0,0,1-3.095-1.289A4.39,4.39,0,0,1-1335,540.92a4.4,4.4,0,0,1,4.4-4.4,4.392,4.392,0,0,1,3.113,1.289,4.391,4.391,0,0,1,1.289,3.095v.019a8.823,8.823,0,0,0,8.8,8.8h.019a4.389,4.389,0,0,1,3.094,1.289A4.39,4.39,0,0,1-1312.99,554.126Z" transform="translate(1335 -536.518)" fill="#e5002b"/>
        </g>
      </g>
      <g id="Group_5775" data-name="Group 5775" transform="translate(0 26.413)">
        <path id="Path_2936" data-name="Path 2936" d="M-1312.99,603.43a4.391,4.391,0,0,1-1.289,3.113,4.391,4.391,0,0,1-3.113,1.289,4.391,4.391,0,0,1-3.113-1.289,4.39,4.39,0,0,1-1.289-3.095v-.019a8.823,8.823,0,0,0-8.8-8.8h-.018a4.39,4.39,0,0,1-3.095-1.289,4.39,4.39,0,0,1-1.289-3.113,4.4,4.4,0,0,1,4.4-4.4,4.391,4.391,0,0,1,3.113,1.289,4.389,4.389,0,0,1,1.289,3.094v.019a8.823,8.823,0,0,0,8.8,8.8h.019a4.39,4.39,0,0,1,3.094,1.289A4.39,4.39,0,0,1-1312.99,603.43Z" transform="translate(1335 -585.822)" fill="#e5002b"/>
      </g>
    </g>
  </g>
</svg>
