<svg xmlns="http://www.w3.org/2000/svg" width="147.322" height="74.407" viewBox="0 0 147.322 74.407">
  <g id="Group_5778" data-name="Group 5778" transform="translate(0 0)">
    <g id="Group_5767" data-name="Group 5767" transform="translate(60.39 53.787)">
      <path id="Path_2891" data-name="Path 2891" d="M-1104.368,690.472a2.286,2.286,0,0,1-.556,1.525,1.9,1.9,0,0,1-1.533.656q-.319,0-1.063-.043.046-.95.046-2.1,0-1.078-.046-1.893h.337q.123,0,.374-.009t.331-.009a2.132,2.132,0,0,1,1.6.531A1.844,1.844,0,0,1-1104.368,690.472Zm-.533.138a1.586,1.586,0,0,0-.434-1.137,1.77,1.77,0,0,0-1.34-.456,2.759,2.759,0,0,0-.352.031q.025.714.025,1.467,0,.827.034,1.679a2.406,2.406,0,0,0,.472.049,1.465,1.465,0,0,0,1.2-.479A1.759,1.759,0,0,0-1104.9,690.609Z" transform="translate(1108.063 -688.447)" fill="#c5c8c9"/>
      <path id="Path_2892" data-name="Path 2892" d="M-1090.875,693.441q0,.129-.012.355l-2.1.037a1.1,1.1,0,0,0,.346.749,1.16,1.16,0,0,0,.836.3,3.243,3.243,0,0,0,.873-.113l-.052.432a2.448,2.448,0,0,1-.867.119,1.607,1.607,0,0,1-1.214-.435,1.472,1.472,0,0,1-.418-1.06,1.8,1.8,0,0,1,.381-1.15,1.238,1.238,0,0,1,1.025-.482,1.136,1.136,0,0,1,.9.349A1.309,1.309,0,0,1-1090.875,693.441Zm-.511.006q0-.861-.72-.861-.735,0-.867.894Z" transform="translate(1097.789 -691.076)" fill="#c5c8c9"/>
      <path id="Path_2893" data-name="Path 2893" d="M-1079.531,694.534q0,.895-1.143.895a4.182,4.182,0,0,1-.943-.1l.095-.45a2.382,2.382,0,0,0,.864.153q.667,0,.667-.38a.344.344,0,0,0-.148-.292,2.328,2.328,0,0,0-.492-.244,2.494,2.494,0,0,1-.631-.331.714.714,0,0,1-.288-.57.8.8,0,0,1,.264-.6,1.13,1.13,0,0,1,.8-.25,3.256,3.256,0,0,1,.846.089l-.1.441a2.06,2.06,0,0,0-.766-.132q-.588,0-.588.34a.338.338,0,0,0,.132.277,2.192,2.192,0,0,0,.515.256,2.506,2.506,0,0,1,.613.319A.726.726,0,0,1-1079.531,694.534Z" transform="translate(1089.098 -691.201)" fill="#c5c8c9"/>
      <path id="Path_2894" data-name="Path 2894" d="M-1070.9,692.182h-.554q.043-.613.043-1.4a8.639,8.639,0,0,0-.107-1.486l.613-.083q-.036.64-.037,1.568Q-1070.943,691.518-1070.9,692.182Zm.129-3.829a.4.4,0,0,1-.1.271.359.359,0,0,1-.285.115.307.307,0,0,1-.243-.1.352.352,0,0,1-.087-.24.381.381,0,0,1,.1-.266.372.372,0,0,1,.288-.114.3.3,0,0,1,.237.1A.344.344,0,0,1-1070.772,688.353Z" transform="translate(1081.705 -688.019)" fill="#c5c8c9"/>
      <path id="Path_2895" data-name="Path 2895" d="M-1063.851,691.13l-.049.423q-.569,0-.628.184v.031a.835.835,0,0,1,.2.545,1.062,1.062,0,0,1-.314.789,1.329,1.329,0,0,1-.969.311,1.41,1.41,0,0,1-.463-.061.318.318,0,0,0-.15.267.252.252,0,0,0,.178.26,3.259,3.259,0,0,0,.947.086q1.164,0,1.164.772a1.121,1.121,0,0,1-.453.913,1.827,1.827,0,0,1-1.173.361,1.623,1.623,0,0,1-1.052-.268.82.82,0,0,1-.314-.645.9.9,0,0,1,.155-.551.634.634,0,0,1,.384-.257v-.028a.448.448,0,0,1-.242-.447.651.651,0,0,1,.306-.527v-.024a.912.912,0,0,1-.309-.27.746.746,0,0,1-.147-.472,1.046,1.046,0,0,1,.322-.794,1.3,1.3,0,0,1,.931-.306,1.458,1.458,0,0,1,.784.181h.033q.1-.518.515-.518A1.039,1.039,0,0,1-1063.851,691.13Zm-.548,3.814a.426.426,0,0,0-.209-.406,1.794,1.794,0,0,0-.789-.118,6.439,6.439,0,0,1-.717-.037.571.571,0,0,0-.374.53q0,.747.98.747a1.443,1.443,0,0,0,.81-.2A.6.6,0,0,0-1064.4,694.944Zm-.426-2.506a.637.637,0,0,0-.213-.516.811.811,0,0,0-.541-.179.783.783,0,0,0-.518.173.6.6,0,0,0-.208.492.619.619,0,0,0,.213.509.834.834,0,0,0,.547.175.781.781,0,0,0,.513-.17A.589.589,0,0,0-1064.825,692.438Z" transform="translate(1078.347 -690.263)" fill="#c5c8c9"/>
      <path id="Path_2896" data-name="Path 2896" d="M-1051.122,695.331h-.557q.068-.806.067-1.758a.854.854,0,0,0-.191-.645.788.788,0,0,0-.547-.173,1.206,1.206,0,0,0-.8.316q0,1.044.012,2.261h-.558q.052-1.042.052-1.507a7.094,7.094,0,0,0-.135-1.391l.539-.077.058.374h.024a1.428,1.428,0,0,1,.971-.411,1.225,1.225,0,0,1,.787.225.981.981,0,0,1,.278.8c0,.039,0,.115-.006.23s-.006.191-.006.23Q-1051.134,694.317-1051.122,695.331Z" transform="translate(1068.718 -691.167)" fill="#c5c8c9"/>
      <path id="Path_2897" data-name="Path 2897" d="M-1040.479,692.182h-.555q.043-.613.043-1.4a8.639,8.639,0,0,0-.107-1.486l.613-.083q-.037.64-.037,1.568Q-1040.522,691.518-1040.479,692.182Zm.129-3.829a.4.4,0,0,1-.1.271.359.359,0,0,1-.285.115.306.306,0,0,1-.243-.1.351.351,0,0,1-.088-.24.382.382,0,0,1,.1-.266.372.372,0,0,1,.288-.114.3.3,0,0,1,.237.1A.343.343,0,0,1-1040.351,688.353Z" transform="translate(1059.432 -688.019)" fill="#c5c8c9"/>
      <path id="Path_2898" data-name="Path 2898" d="M-1033.339,695.331h-.557q.067-.806.067-1.758a.852.852,0,0,0-.192-.645.787.787,0,0,0-.547-.173,1.206,1.206,0,0,0-.8.316q0,1.044.012,2.261h-.557q.052-1.042.052-1.507a7.066,7.066,0,0,0-.135-1.391l.539-.077.058.374h.025a1.426,1.426,0,0,1,.971-.411,1.224,1.224,0,0,1,.787.225.98.98,0,0,1,.279.8c0,.039,0,.115-.006.23s-.006.191-.006.23Q-1033.351,694.317-1033.339,695.331Z" transform="translate(1055.698 -691.167)" fill="#c5c8c9"/>
      <path id="Path_2899" data-name="Path 2899" d="M-1020.747,691.13l-.049.423q-.57,0-.628.184v.031a.836.836,0,0,1,.2.545,1.063,1.063,0,0,1-.314.789,1.33,1.33,0,0,1-.969.311,1.409,1.409,0,0,1-.463-.061.319.319,0,0,0-.15.267.252.252,0,0,0,.177.26,3.26,3.26,0,0,0,.947.086q1.164,0,1.164.772a1.12,1.12,0,0,1-.453.913,1.826,1.826,0,0,1-1.173.361,1.624,1.624,0,0,1-1.052-.268.821.821,0,0,1-.314-.645.9.9,0,0,1,.155-.551.636.636,0,0,1,.384-.257v-.028a.448.448,0,0,1-.242-.447.651.651,0,0,1,.306-.527v-.024a.911.911,0,0,1-.309-.27.747.747,0,0,1-.147-.472,1.047,1.047,0,0,1,.321-.794,1.3,1.3,0,0,1,.931-.306,1.458,1.458,0,0,1,.784.181h.033q.1-.518.515-.518A1.037,1.037,0,0,1-1020.747,691.13Zm-.549,3.814a.426.426,0,0,0-.21-.406,1.792,1.792,0,0,0-.789-.118,6.44,6.44,0,0,1-.717-.037.571.571,0,0,0-.374.53q0,.747.98.747a1.443,1.443,0,0,0,.81-.2A.6.6,0,0,0-1021.3,694.944Zm-.426-2.506a.637.637,0,0,0-.213-.516.811.811,0,0,0-.541-.179.783.783,0,0,0-.518.173.6.6,0,0,0-.208.492.62.62,0,0,0,.213.509.835.835,0,0,0,.547.175.782.782,0,0,0,.513-.17A.59.59,0,0,0-1021.721,692.438Z" transform="translate(1046.789 -690.263)" fill="#c5c8c9"/>
      <path id="Path_2900" data-name="Path 2900" d="M-1001.977,692.476h-.665a1.133,1.133,0,0,0-.2-.377,3.29,3.29,0,0,0-.322-.426h-.024a1.824,1.824,0,0,1-1.569.891,1.234,1.234,0,0,1-.839-.282.971.971,0,0,1-.325-.775,1.47,1.47,0,0,1,.233-.855,1.464,1.464,0,0,1,.683-.518v-.021a1.145,1.145,0,0,1-.552-.845.732.732,0,0,1,.3-.625,1.174,1.174,0,0,1,.717-.224,1.161,1.161,0,0,1,.709.22.725.725,0,0,1,.3.619.8.8,0,0,1-.162.478,1.011,1.011,0,0,1-.447.346v.031a5.348,5.348,0,0,1,1.026.849h.019a1.785,1.785,0,0,0,.135-.821h.576a1.67,1.67,0,0,1-.153.49,2.015,2.015,0,0,1-.321.567v.025a4.389,4.389,0,0,1,.548.659A1.629,1.629,0,0,1-1001.977,692.476Zm-1.4-1.051v-.031q-.223-.235-.441-.435a4.107,4.107,0,0,0-.907-.662,1.014,1.014,0,0,0-.646,1,.815.815,0,0,0,.234.611.852.852,0,0,0,.62.228A1.67,1.67,0,0,0-1003.378,691.425Zm-.646-2.043a.579.579,0,0,0-.152-.435.506.506,0,0,0-.366-.147.54.54,0,0,0-.349.121.39.39,0,0,0-.15.32q0,.413.625.7A.582.582,0,0,0-1004.024,689.382Z" transform="translate(1033.677 -688.313)" fill="#c5c8c9"/>
      <path id="Path_2901" data-name="Path 2901" d="M-1104.831,717.717a1.163,1.163,0,0,1-.53,1.045,2.573,2.573,0,0,1-1.424.346c-.075,0-.141,0-.2-.006q0,.668.049,1.614h-.588q.046-.87.046-2.1,0-1.053-.046-1.893h.438q.07,0,.4-.009t.565-.009a1.492,1.492,0,0,1,.936.268A.881.881,0,0,1-1104.831,717.717Zm-.511.178q0-.788-1.075-.788a4.311,4.311,0,0,0-.591.046q.022.5.021,1.556c.072,0,.159.006.264.006Q-1105.342,718.715-1105.342,717.895Z" transform="translate(1108.063 -709.024)" fill="#c5c8c9"/>
      <path id="Path_2902" data-name="Path 2902" d="M-1093.633,720.526l-.138.487a1.212,1.212,0,0,0-.444-.095.716.716,0,0,0-.748.548q0,1.409.018,1.97h-.542q.049-.971.049-1.507a6.556,6.556,0,0,0-.144-1.391l.536-.077a3.333,3.333,0,0,1,.058.45h.024a.937.937,0,0,1,.772-.487A1.935,1.935,0,0,1-1093.633,720.526Z" transform="translate(1099.321 -711.745)" fill="#c5c8c9"/>
      <path id="Path_2903" data-name="Path 2903" d="M-1084.392,721.8a1.63,1.63,0,0,1-.45,1.224,1.467,1.467,0,0,1-1.06.44,1.371,1.371,0,0,1-.979-.389,1.441,1.441,0,0,1-.409-1.1,1.653,1.653,0,0,1,.452-1.235,1.466,1.466,0,0,1,1.062-.444,1.357,1.357,0,0,1,.977.393A1.468,1.468,0,0,1-1084.392,721.8Zm-.53.107a1.533,1.533,0,0,0-.241-.85.769.769,0,0,0-.685-.372.769.769,0,0,0-.678.352,1.428,1.428,0,0,0-.238.818,1.529,1.529,0,0,0,.241.852.772.772,0,0,0,.688.371.765.765,0,0,0,.677-.354A1.44,1.44,0,0,0-1084.922,721.908Z" transform="translate(1093.251 -711.653)" fill="#c5c8c9"/>
      <path id="Path_2904" data-name="Path 2904" d="M-1071.5,719.236l-.049.423q-.57,0-.628.184v.031a.835.835,0,0,1,.2.545,1.062,1.062,0,0,1-.314.789,1.329,1.329,0,0,1-.969.311,1.409,1.409,0,0,1-.463-.061.318.318,0,0,0-.15.267.252.252,0,0,0,.178.26,3.266,3.266,0,0,0,.947.086q1.164,0,1.164.772a1.12,1.12,0,0,1-.453.913,1.826,1.826,0,0,1-1.173.361,1.626,1.626,0,0,1-1.052-.268.821.821,0,0,1-.314-.645.9.9,0,0,1,.155-.551.634.634,0,0,1,.384-.257v-.028a.448.448,0,0,1-.242-.447.651.651,0,0,1,.306-.527v-.024a.911.911,0,0,1-.309-.27.746.746,0,0,1-.147-.472,1.046,1.046,0,0,1,.322-.793,1.3,1.3,0,0,1,.931-.306,1.458,1.458,0,0,1,.784.181h.034q.1-.517.515-.518A1.038,1.038,0,0,1-1071.5,719.236Zm-.548,3.814a.426.426,0,0,0-.21-.406,1.791,1.791,0,0,0-.789-.118,6.421,6.421,0,0,1-.717-.037.571.571,0,0,0-.374.53q0,.747.98.747a1.444,1.444,0,0,0,.81-.2A.6.6,0,0,0-1072.051,723.05Zm-.426-2.506a.637.637,0,0,0-.213-.516.81.81,0,0,0-.541-.179.783.783,0,0,0-.518.173.6.6,0,0,0-.208.492.62.62,0,0,0,.213.509.834.834,0,0,0,.547.174.78.78,0,0,0,.513-.17A.589.589,0,0,0-1072.476,720.544Z" transform="translate(1083.949 -710.841)" fill="#c5c8c9"/>
      <path id="Path_2905" data-name="Path 2905" d="M-1059.61,720.526l-.138.487a1.212,1.212,0,0,0-.444-.095.716.716,0,0,0-.748.548q0,1.409.019,1.97h-.542q.049-.971.049-1.507a6.556,6.556,0,0,0-.144-1.391l.536-.077a3.34,3.34,0,0,1,.058.45h.024a.938.938,0,0,1,.772-.487A1.934,1.934,0,0,1-1059.61,720.526Z" transform="translate(1074.412 -711.745)" fill="#c5c8c9"/>
      <path id="Path_2906" data-name="Path 2906" d="M-1050.957,723.437l-.481.018a1.209,1.209,0,0,1-.037-.285h-.031a1.466,1.466,0,0,1-1.026.343.932.932,0,0,1-.606-.207.717.717,0,0,1-.254-.59.89.89,0,0,1,.4-.758,2.77,2.77,0,0,1,1.48-.3,1.354,1.354,0,0,0,.009-.169.549.549,0,0,0-.2-.5,1.168,1.168,0,0,0-.608-.126,3.79,3.79,0,0,0-.946.12l.052-.423a3.853,3.853,0,0,1,1.057-.132,1.371,1.371,0,0,1,.842.225.9.9,0,0,1,.3.767q0,.144-.014.522c-.009.252-.014.42-.014.5A5.339,5.339,0,0,0-1050.957,723.437Zm-.542-.594q-.015-.466-.015-.836a3.4,3.4,0,0,0-.876.086.6.6,0,0,0-.5.585q0,.417.588.417A1.215,1.215,0,0,0-1051.5,722.842Z" transform="translate(1068.433 -711.745)" fill="#c5c8c9"/>
      <path id="Path_2907" data-name="Path 2907" d="M-1037.816,721.663a.9.9,0,0,0-.17-.648.81.81,0,0,0-.559-.158,1.023,1.023,0,0,0-.677.322q-.012.374-.012.732,0,.512.019,1.526h-.557q.067-.873.067-1.774a.9.9,0,0,0-.17-.648.784.784,0,0,0-.544-.158,1.021,1.021,0,0,0-.717.322q0,.971.012,2.258h-.557q.058-1.042.058-1.507a6.994,6.994,0,0,0-.138-1.391l.539-.077.055.37h.031a1.215,1.215,0,0,1,.885-.407q.725,0,.934.407h.034a1.4,1.4,0,0,1,.913-.407,1.163,1.163,0,0,1,.778.227,1.013,1.013,0,0,1,.264.8q0,.058-.006.229c0,.115-.006.191-.006.23q0,.512.012,1.526h-.558Q-1037.816,722.634-1037.816,721.663Z" transform="translate(1059.918 -711.745)" fill="#c5c8c9"/>
      <path id="Path_2908" data-name="Path 2908" d="M-1018.637,721.663a.9.9,0,0,0-.17-.648.812.812,0,0,0-.559-.158,1.023,1.023,0,0,0-.677.322q-.012.374-.012.732,0,.512.019,1.526h-.558q.067-.873.068-1.774a.9.9,0,0,0-.17-.648.785.785,0,0,0-.544-.158,1.021,1.021,0,0,0-.717.322q0,.971.012,2.258h-.557q.058-1.042.058-1.507a7,7,0,0,0-.138-1.391l.539-.077.055.37h.031a1.216,1.216,0,0,1,.885-.407q.726,0,.935.407h.034a1.4,1.4,0,0,1,.913-.407,1.164,1.164,0,0,1,.778.227,1.013,1.013,0,0,1,.264.8q0,.058-.006.229c0,.115-.006.191-.006.23q0,.512.012,1.526h-.558Q-1018.637,722.634-1018.637,721.663Z" transform="translate(1045.876 -711.745)" fill="#c5c8c9"/>
      <path id="Path_2909" data-name="Path 2909" d="M-1002.659,720.288h-.555q.043-.613.043-1.4a8.639,8.639,0,0,0-.107-1.486l.613-.083q-.036.64-.037,1.568Q-1002.7,719.623-1002.659,720.288Zm.129-3.829a.4.4,0,0,1-.1.271.36.36,0,0,1-.285.115.307.307,0,0,1-.243-.1.352.352,0,0,1-.087-.24.381.381,0,0,1,.1-.266.372.372,0,0,1,.288-.114.3.3,0,0,1,.237.1A.344.344,0,0,1-1002.531,716.459Z" transform="translate(1031.742 -708.597)" fill="#c5c8c9"/>
      <path id="Path_2910" data-name="Path 2910" d="M-995.519,723.437h-.557q.067-.806.067-1.758a.853.853,0,0,0-.191-.645.788.788,0,0,0-.547-.173,1.207,1.207,0,0,0-.8.316q0,1.045.012,2.261h-.557q.052-1.042.052-1.507a7.067,7.067,0,0,0-.135-1.391l.539-.077.058.374h.025a1.426,1.426,0,0,1,.971-.411,1.225,1.225,0,0,1,.787.225.981.981,0,0,1,.279.8q0,.058-.006.229c0,.115-.006.191-.006.23Q-995.531,722.422-995.519,723.437Z" transform="translate(1028.009 -711.745)" fill="#c5c8c9"/>
      <path id="Path_2911" data-name="Path 2911" d="M-982.927,719.236l-.049.423q-.57,0-.628.184v.031a.835.835,0,0,1,.2.545,1.064,1.064,0,0,1-.314.789,1.33,1.33,0,0,1-.97.311,1.41,1.41,0,0,1-.463-.061.319.319,0,0,0-.15.267.252.252,0,0,0,.178.26,3.265,3.265,0,0,0,.947.086q1.164,0,1.164.772a1.12,1.12,0,0,1-.453.913,1.825,1.825,0,0,1-1.173.361,1.626,1.626,0,0,1-1.052-.268.82.82,0,0,1-.314-.645.9.9,0,0,1,.155-.551.635.635,0,0,1,.384-.257v-.028a.448.448,0,0,1-.242-.447.65.65,0,0,1,.306-.527v-.024a.907.907,0,0,1-.309-.27.747.747,0,0,1-.147-.472,1.046,1.046,0,0,1,.322-.793,1.3,1.3,0,0,1,.931-.306,1.459,1.459,0,0,1,.784.181h.034q.1-.517.515-.518A1.038,1.038,0,0,1-982.927,719.236Zm-.548,3.814a.426.426,0,0,0-.21-.406,1.791,1.791,0,0,0-.789-.118,6.426,6.426,0,0,1-.717-.037.571.571,0,0,0-.374.53q0,.747.98.747a1.444,1.444,0,0,0,.811-.2A.6.6,0,0,0-983.476,723.05Zm-.426-2.506a.637.637,0,0,0-.213-.516.811.811,0,0,0-.541-.179.782.782,0,0,0-.518.173.6.6,0,0,0-.208.492.62.62,0,0,0,.213.509.835.835,0,0,0,.547.174.781.781,0,0,0,.513-.17A.59.59,0,0,0-983.9,720.544Z" transform="translate(1019.099 -710.841)" fill="#c5c8c9"/>
      <path id="Path_2912" data-name="Path 2912" d="M-1105.746,748.871h-.646a6.741,6.741,0,0,0-.386-1.289h-1.767a6.43,6.43,0,0,0-.38,1.289h-.619a21.064,21.064,0,0,1,.791-1.959,14.633,14.633,0,0,0,.79-2.03h.711a14.754,14.754,0,0,0,.754,2A15.552,15.552,0,0,1-1105.746,748.871Zm-1.173-1.691q-.72-1.8-.72-1.911h-.034q0,.1-.744,1.911Z" transform="translate(1109.545 -729.652)" fill="#c5c8c9"/>
      <path id="Path_2913" data-name="Path 2913" d="M-1091.125,749.952a1.863,1.863,0,0,1-.378,1.16,1.247,1.247,0,0,1-1.052.5.992.992,0,0,1-.741-.2h-.031q0,.852.018,1.519h-.576q.071-.815.071-2.013a13.051,13.051,0,0,0-.153-2.285l.539-.077.046.3h.031a1.2,1.2,0,0,1,.962-.346,1.119,1.119,0,0,1,.925.427A1.581,1.581,0,0,1-1091.125,749.952Zm-.545.074a1.271,1.271,0,0,0-.239-.777.787.787,0,0,0-.671-.323.9.9,0,0,0-.79.334q.049,1.029.049,1.767a.971.971,0,0,0,.646.208.861.861,0,0,0,.755-.356A1.448,1.448,0,0,0-1091.671,750.025Z" transform="translate(1098.14 -732.306)" fill="#c5c8c9"/>
      <path id="Path_2914" data-name="Path 2914" d="M-1078.111,749.952a1.863,1.863,0,0,1-.378,1.16,1.247,1.247,0,0,1-1.052.5.992.992,0,0,1-.741-.2h-.031q0,.852.019,1.519h-.576q.07-.815.07-2.013a13.065,13.065,0,0,0-.153-2.285l.539-.077.046.3h.031a1.2,1.2,0,0,1,.962-.346,1.119,1.119,0,0,1,.925.427A1.582,1.582,0,0,1-1078.111,749.952Zm-.545.074a1.271,1.271,0,0,0-.239-.777.786.786,0,0,0-.671-.323.905.905,0,0,0-.79.334q.049,1.029.049,1.767a.971.971,0,0,0,.646.208.861.861,0,0,0,.755-.356A1.449,1.449,0,0,0-1078.656,750.025Z" transform="translate(1088.612 -732.306)" fill="#c5c8c9"/>
      <path id="Path_2915" data-name="Path 2915" d="M-1067.191,747.909h-.588q.055-1.011.055-2.285a18.831,18.831,0,0,0-.089-2.025l.622-.031q-.058.833-.058,2.056Q-1067.25,746.883-1067.191,747.909Z" transform="translate(1078.991 -728.689)" fill="#c5c8c9"/>
      <path id="Path_2916" data-name="Path 2916" d="M-1061.957,748.394h-.554q.043-.612.042-1.4a8.64,8.64,0,0,0-.107-1.486l.613-.083q-.036.64-.037,1.568Q-1062,747.729-1061.957,748.394Zm.129-3.829a.4.4,0,0,1-.1.271.36.36,0,0,1-.285.115.307.307,0,0,1-.244-.1.351.351,0,0,1-.087-.241.381.381,0,0,1,.1-.266.372.372,0,0,1,.288-.114.3.3,0,0,1,.237.1A.345.345,0,0,1-1061.828,744.565Z" transform="translate(1075.157 -729.174)" fill="#c5c8c9"/>
      <path id="Path_2917" data-name="Path 2917" d="M-1055.285,751.074l-.03.41a1.344,1.344,0,0,1-.665.141,1.6,1.6,0,0,1-1.213-.438,1.472,1.472,0,0,1-.42-1.057,1.593,1.593,0,0,1,.441-1.127,1.523,1.523,0,0,1,1.167-.472,1.99,1.99,0,0,1,.594.074l-.083.481a1.864,1.864,0,0,0-.653-.12.861.861,0,0,0-.692.3,1.132,1.132,0,0,0-.258.76,1.171,1.171,0,0,0,.307.827,1.123,1.123,0,0,0,.867.331A2.55,2.55,0,0,0-1055.285,751.074Z" transform="translate(1071.523 -732.322)" fill="#c5c8c9"/>
      <path id="Path_2918" data-name="Path 2918" d="M-1044.725,751.542l-.481.018a1.2,1.2,0,0,1-.037-.285h-.031a1.466,1.466,0,0,1-1.026.343.932.932,0,0,1-.607-.207.717.717,0,0,1-.254-.59.89.89,0,0,1,.4-.758,2.77,2.77,0,0,1,1.48-.3,1.355,1.355,0,0,0,.009-.169.548.548,0,0,0-.2-.5,1.166,1.166,0,0,0-.608-.126,3.8,3.8,0,0,0-.947.12l.052-.423a3.849,3.849,0,0,1,1.057-.132,1.372,1.372,0,0,1,.842.225.9.9,0,0,1,.3.767q0,.144-.014.522t-.014.5A5.345,5.345,0,0,0-1044.725,751.542Zm-.542-.594q-.015-.466-.015-.836a3.4,3.4,0,0,0-.876.086.6.6,0,0,0-.5.585q0,.417.588.417A1.215,1.215,0,0,0-1045.267,750.948Z" transform="translate(1063.87 -732.322)" fill="#c5c8c9"/>
      <path id="Path_2919" data-name="Path 2919" d="M-1034.221,749.043l-.036.4a1.324,1.324,0,0,1-.456.089.873.873,0,0,1-.754-.28,1.8,1.8,0,0,1-.2-1q0-.469.006-1.222-.171,0-.505.018l.018-.444q.292.019.521.018,0-.184.031-.873l.481-.049q-.052.643-.052.922.3,0,.882-.031l-.021.456q-.552-.018-.885-.018-.006.462-.006,1.041a1.726,1.726,0,0,0,.133.835.548.548,0,0,0,.495.2A1.51,1.51,0,0,0-1034.221,749.043Z" transform="translate(1055.823 -730.246)" fill="#c5c8c9"/>
      <path id="Path_2920" data-name="Path 2920" d="M-1026.378,748.394h-.554q.043-.612.043-1.4a8.675,8.675,0,0,0-.107-1.486l.613-.083q-.036.64-.037,1.568Q-1026.421,747.729-1026.378,748.394Zm.129-3.829a.4.4,0,0,1-.1.271.359.359,0,0,1-.285.115.307.307,0,0,1-.244-.1.353.353,0,0,1-.087-.241.381.381,0,0,1,.1-.266.372.372,0,0,1,.288-.114.3.3,0,0,1,.237.1A.344.344,0,0,1-1026.25,744.565Z" transform="translate(1049.108 -729.174)" fill="#c5c8c9"/>
      <path id="Path_2921" data-name="Path 2921" d="M-1019.136,749.907a1.632,1.632,0,0,1-.45,1.224,1.468,1.468,0,0,1-1.06.44,1.37,1.37,0,0,1-.979-.389,1.441,1.441,0,0,1-.409-1.1,1.651,1.651,0,0,1,.452-1.234,1.466,1.466,0,0,1,1.062-.444,1.357,1.357,0,0,1,.977.394A1.468,1.468,0,0,1-1019.136,749.907Zm-.53.107a1.534,1.534,0,0,0-.241-.85.769.769,0,0,0-.685-.372.77.77,0,0,0-.679.352,1.431,1.431,0,0,0-.237.818,1.53,1.53,0,0,0,.24.852.772.772,0,0,0,.688.371.765.765,0,0,0,.677-.354A1.438,1.438,0,0,0-1019.666,750.014Z" transform="translate(1045.474 -732.231)" fill="#c5c8c9"/>
      <path id="Path_2922" data-name="Path 2922" d="M-1006.154,751.542h-.557q.067-.805.067-1.758a.853.853,0,0,0-.191-.645.788.788,0,0,0-.547-.173,1.207,1.207,0,0,0-.8.316q0,1.045.012,2.261h-.558q.052-1.042.052-1.507a7.084,7.084,0,0,0-.135-1.391l.539-.077.058.374h.024a1.426,1.426,0,0,1,.971-.411,1.225,1.225,0,0,1,.787.225.981.981,0,0,1,.279.8c0,.039,0,.115-.006.23s-.006.191-.006.23Q-1006.166,750.528-1006.154,751.542Z" transform="translate(1035.795 -732.322)" fill="#c5c8c9"/>
      <path id="Path_2923" data-name="Path 2923" d="M-994.33,750.746q0,.895-1.143.895a4.182,4.182,0,0,1-.943-.1l.095-.45a2.378,2.378,0,0,0,.864.153q.668,0,.668-.38a.345.345,0,0,0-.148-.292,2.33,2.33,0,0,0-.492-.244,2.479,2.479,0,0,1-.631-.331.714.714,0,0,1-.288-.57.8.8,0,0,1,.264-.6,1.13,1.13,0,0,1,.8-.25,3.25,3.25,0,0,1,.845.089l-.095.441a2.059,2.059,0,0,0-.766-.132q-.588,0-.588.34a.338.338,0,0,0,.132.277,2.192,2.192,0,0,0,.515.256,2.519,2.519,0,0,1,.613.319A.726.726,0,0,1-994.33,750.746Z" transform="translate(1026.719 -732.356)" fill="#c5c8c9"/>
    </g>
    <g id="Group_5768" data-name="Group 5768" transform="translate(60.39)">
      <path id="Path_2924" data-name="Path 2924" d="M-1094.181,487.215h4.4V507.8h-3.87l-9.851-13.018V507.8h-4.4V487.215h13.722Zm0,12.666v-8.268h-6.333Z" transform="translate(1108.343 -487.215)" fill="#fff"/>
      <path id="Path_2925" data-name="Path 2925" d="M-1013.26,493.708a10.374,10.374,0,0,0-2.2-3.273,10.409,10.409,0,0,0-3.268-2.2,10.034,10.034,0,0,0-4.02-.808,10,10,0,0,0-4.015.808,10.378,10.378,0,0,0-3.272,2.2,10.373,10.373,0,0,0-2.2,3.273,10,10,0,0,0-.808,4.015,10,10,0,0,0,.808,4.015,10.374,10.374,0,0,0,2.2,3.273,10.379,10.379,0,0,0,3.272,2.2,10,10,0,0,0,4.015.808,10.034,10.034,0,0,0,4.02-.808,10.41,10.41,0,0,0,3.268-2.2,10.375,10.375,0,0,0,2.2-3.273,9.994,9.994,0,0,0,.809-4.015A9.994,9.994,0,0,0-1013.26,493.708Zm-4.916,8.583a6.425,6.425,0,0,1-4.568,1.893,6.425,6.425,0,0,1-4.568-1.893,6.436,6.436,0,0,1-1.894-4.569,6.461,6.461,0,0,1,6.462-6.462,6.426,6.426,0,0,1,4.568,1.893,6.436,6.436,0,0,1,1.893,4.569A6.436,6.436,0,0,1-1018.176,502.292Z" transform="translate(1053.53 -487.373)" fill="#fff"/>
      <path id="Path_2926" data-name="Path 2926" d="M-946.083,508.2V491.779h-5.072v-4.017h14.484v4.017h-5.219V508.2Z" transform="translate(993.581 -487.615)" fill="#fff"/>
      <path id="Path_2927" data-name="Path 2927" d="M-1099.283,611.845a9.985,9.985,0,0,1-3.988-.806,10.344,10.344,0,0,1-3.269-2.2,10.342,10.342,0,0,1-2.2-3.269,9.992,9.992,0,0,1-.807-3.987,10.067,10.067,0,0,1,.807-4.017,10.527,10.527,0,0,1,2.2-3.284,10.232,10.232,0,0,1,3.269-2.214,9.993,9.993,0,0,1,3.988-.806,10.02,10.02,0,0,1,3.577.645,11.734,11.734,0,0,1,3.2,1.847l-3.02,3.548a5.037,5.037,0,0,0-1.744-.953,6.935,6.935,0,0,0-2.009-.279,5.165,5.165,0,0,0-2.111.44,5.685,5.685,0,0,0-1.745,1.187,5.7,5.7,0,0,0-1.187,1.745,5.246,5.246,0,0,0-.44,2.14,5.172,5.172,0,0,0,.44,2.111,5.691,5.691,0,0,0,1.187,1.745,5.687,5.687,0,0,0,1.745,1.188,5.166,5.166,0,0,0,2.111.44,5.933,5.933,0,0,0,3.753-1.232l3.02,3.518a9.542,9.542,0,0,1-3.123,1.847A10.6,10.6,0,0,1-1099.283,611.845Z" transform="translate(1109.545 -563.393)" fill="#fff"/>
      <path id="Path_2928" data-name="Path 2928" d="M-1022.942,611.925h-4.929l-6.391-9.032h3.18a2.746,2.746,0,0,0,1.415-.365,3.725,3.725,0,0,0,1.063-.953,4.147,4.147,0,0,0,.659-1.3,4.855,4.855,0,0,0,.224-1.454,3.474,3.474,0,0,0-.975-2.578,3.465,3.465,0,0,0-2.561-.966h-3v16.653h-4.252V591.371h7.757a7.9,7.9,0,0,1,2.983.5,6.348,6.348,0,0,1,2.165,1.436,8.339,8.339,0,0,1,.778.993,7.525,7.525,0,0,1,.685,1.278,9.229,9.229,0,0,1,.483,1.467,6.541,6.541,0,0,1,.193,1.568,9.161,9.161,0,0,1-.294,2.315,8.838,8.838,0,0,1-.8,2.038,7.38,7.38,0,0,1-1.226,1.643,5.207,5.207,0,0,1-1.555,1.1Z" transform="translate(1057.54 -563.472)" fill="#fff"/>
      <path id="Path_2929" data-name="Path 2929" d="M-971.411,612.275h-4.046l7.242-20.465h4.046l7.242,20.465h-4.427l-4.926-14.631Z" transform="translate(1011.373 -563.793)" fill="#fff"/>
      <path id="Path_2930" data-name="Path 2930" d="M-894.375,608.522a3.2,3.2,0,0,0,1.862-.5,1.614,1.614,0,0,0,.718-1.407,1.954,1.954,0,0,0-.132-.718,1.765,1.765,0,0,0-.5-.66,4.539,4.539,0,0,0-1.056-.645q-.689-.322-1.774-.7a23.534,23.534,0,0,1-2.4-1.085,7.536,7.536,0,0,1-1.774-1.261,4.8,4.8,0,0,1-1.1-1.642,5.9,5.9,0,0,1-.382-2.228,6.08,6.08,0,0,1,.455-2.375,5.135,5.135,0,0,1,1.319-1.862,6.1,6.1,0,0,1,2.067-1.2,8.052,8.052,0,0,1,2.7-.425,10.93,10.93,0,0,1,3.357.542,7.436,7.436,0,0,1,3.005,1.862l-2.258,3.108a11.889,11.889,0,0,0-2.067-1.246,5.256,5.256,0,0,0-2.243-.484,2.523,2.523,0,0,0-1.628.484,1.527,1.527,0,0,0-.6,1.246,1.71,1.71,0,0,0,.161.748,2.009,2.009,0,0,0,.586.674,6.747,6.747,0,0,0,1.159.7,20.261,20.261,0,0,0,1.906.806,16.019,16.019,0,0,1,2.272,1.07,7.276,7.276,0,0,1,1.657,1.29,5.04,5.04,0,0,1,1.026,1.612,5.614,5.614,0,0,1,.352,2.067,6.069,6.069,0,0,1-.513,2.536,5.367,5.367,0,0,1-1.408,1.891,6.3,6.3,0,0,1-2.125,1.173,8.283,8.283,0,0,1-2.639.411,11.181,11.181,0,0,1-3.856-.689,10.52,10.52,0,0,1-3.562-2.243l2.4-3.078a12.194,12.194,0,0,0,2.229,1.568A5.7,5.7,0,0,0-894.375,608.522Z" transform="translate(957.441 -563.793)" fill="#fff"/>
      <path id="Path_2931" data-name="Path 2931" d="M-830.844,591.372h4.251V611.9h-4.251V601.033h-6.714V611.9h-4.251V591.372h4.251v5.761h6.714Z" transform="translate(913.525 -563.473)" fill="#fff"/>
    </g>
    <g id="Group_5777" data-name="Group 5777" transform="translate(0)">
      <g id="Group_5776" data-name="Group 5776" transform="translate(0 0)">
        <g id="Group_5769" data-name="Group 5769" transform="translate(26.413)">
          <path id="Path_2932" data-name="Path 2932" d="M-1214.382,504.823a4.391,4.391,0,0,1-1.289,3.113,4.391,4.391,0,0,1-3.113,1.289,4.39,4.39,0,0,1-3.113-1.289,4.39,4.39,0,0,1-1.289-3.095v-.018a8.823,8.823,0,0,0-8.8-8.8h-.018a4.39,4.39,0,0,1-3.095-1.289,4.39,4.39,0,0,1-1.289-3.113,4.4,4.4,0,0,1,4.4-4.4,4.39,4.39,0,0,1,3.113,1.289,4.389,4.389,0,0,1,1.289,3.095v.018a8.823,8.823,0,0,0,8.8,8.8h.019a4.391,4.391,0,0,1,3.095,1.289A4.392,4.392,0,0,1-1214.382,504.823Z" transform="translate(1236.393 -487.215)" fill="#e5002b"/>
        </g>
        <g id="Group_5771" data-name="Group 5771" transform="translate(13.206)">
          <g id="Group_5770" data-name="Group 5770">
            <path id="Path_2933" data-name="Path 2933" d="M-1263.686,504.823a4.39,4.39,0,0,1-1.289,3.113,4.39,4.39,0,0,1-3.113,1.289,4.391,4.391,0,0,1-3.113-1.289,4.39,4.39,0,0,1-1.289-3.095v-.018a8.823,8.823,0,0,0-8.8-8.8h-.019a4.389,4.389,0,0,1-3.094-1.289,4.39,4.39,0,0,1-1.289-3.113,4.4,4.4,0,0,1,4.4-4.4,4.39,4.39,0,0,1,3.113,1.289,4.39,4.39,0,0,1,1.289,3.095v.018a8.823,8.823,0,0,0,8.8,8.8h.019a4.39,4.39,0,0,1,3.094,1.289A4.391,4.391,0,0,1-1263.686,504.823Z" transform="translate(1285.697 -487.215)" fill="#e5002b"/>
          </g>
        </g>
        <g id="Group_5772" data-name="Group 5772" transform="translate(13.206 13.206)">
          <path id="Path_2934" data-name="Path 2934" d="M-1263.686,554.126a4.39,4.39,0,0,1-1.289,3.113,4.39,4.39,0,0,1-3.113,1.289,4.391,4.391,0,0,1-3.113-1.289,4.389,4.389,0,0,1-1.289-3.094v-.019a8.823,8.823,0,0,0-8.8-8.8h-.019a4.39,4.39,0,0,1-3.094-1.289,4.391,4.391,0,0,1-1.289-3.113,4.4,4.4,0,0,1,4.4-4.4,4.391,4.391,0,0,1,3.113,1.289,4.39,4.39,0,0,1,1.289,3.095v.019a8.823,8.823,0,0,0,8.8,8.8h.019a4.389,4.389,0,0,1,3.094,1.289A4.39,4.39,0,0,1-1263.686,554.126Z" transform="translate(1285.697 -536.518)" fill="#e5002b"/>
        </g>
        <g id="Group_5774" data-name="Group 5774" transform="translate(0 13.206)">
          <g id="Group_5773" data-name="Group 5773">
            <path id="Path_2935" data-name="Path 2935" d="M-1312.99,554.126a4.39,4.39,0,0,1-1.289,3.113,4.39,4.39,0,0,1-3.113,1.289,4.39,4.39,0,0,1-3.113-1.289,4.389,4.389,0,0,1-1.289-3.094v-.019a8.823,8.823,0,0,0-8.8-8.8h-.018a4.391,4.391,0,0,1-3.095-1.289A4.39,4.39,0,0,1-1335,540.92a4.4,4.4,0,0,1,4.4-4.4,4.392,4.392,0,0,1,3.113,1.289,4.391,4.391,0,0,1,1.289,3.095v.019a8.823,8.823,0,0,0,8.8,8.8h.019a4.389,4.389,0,0,1,3.094,1.289A4.39,4.39,0,0,1-1312.99,554.126Z" transform="translate(1335 -536.518)" fill="#e5002b"/>
          </g>
        </g>
        <g id="Group_5775" data-name="Group 5775" transform="translate(0 26.413)">
          <path id="Path_2936" data-name="Path 2936" d="M-1312.99,603.43a4.391,4.391,0,0,1-1.289,3.113,4.391,4.391,0,0,1-3.113,1.289,4.391,4.391,0,0,1-3.113-1.289,4.39,4.39,0,0,1-1.289-3.095v-.019a8.823,8.823,0,0,0-8.8-8.8h-.018a4.39,4.39,0,0,1-3.095-1.289,4.39,4.39,0,0,1-1.289-3.113,4.4,4.4,0,0,1,4.4-4.4,4.391,4.391,0,0,1,3.113,1.289,4.389,4.389,0,0,1,1.289,3.094v.019a8.823,8.823,0,0,0,8.8,8.8h.019a4.39,4.39,0,0,1,3.094,1.289A4.39,4.39,0,0,1-1312.99,603.43Z" transform="translate(1335 -585.822)" fill="#e5002b"/>
        </g>
      </g>
    </g>
  </g>
</svg>
