<svg xmlns="http://www.w3.org/2000/svg" width="253.683" height="128.126" viewBox="0 0 253.683 128.126">
  <g id="Group_5896" data-name="Group 5896" transform="translate(1335 -487.215)">
    <g id="Group_5767" data-name="Group 5767" transform="translate(-1231.011 579.834)">
      <path id="Path_2891" data-name="Path 2891" d="M-1102.093,691.821a3.935,3.935,0,0,1-.957,2.627,3.276,3.276,0,0,1-2.64,1.129q-.549,0-1.83-.073.079-1.635.079-3.608,0-1.856-.079-3.26h.58q.211,0,.644-.016t.57-.016a3.673,3.673,0,0,1,2.748.915A3.177,3.177,0,0,1-1102.093,691.821Zm-.917.238a2.731,2.731,0,0,0-.747-1.957,3.047,3.047,0,0,0-2.308-.786,4.764,4.764,0,0,0-.607.053q.043,1.229.042,2.527,0,1.424.058,2.891a4.141,4.141,0,0,0,.812.084,2.522,2.522,0,0,0,2.071-.826A3.028,3.028,0,0,0-1103.01,692.058Z" transform="translate(1108.454 -688.334)" fill="#c5c8c9"/>
      <path id="Path_2892" data-name="Path 2892" d="M-1088.989,694.341q0,.221-.021.612l-3.624.063a1.9,1.9,0,0,0,.6,1.29,2,2,0,0,0,1.44.519,5.591,5.591,0,0,0,1.5-.2l-.089.744a4.217,4.217,0,0,1-1.493.206,2.767,2.767,0,0,1-2.091-.749,2.534,2.534,0,0,1-.72-1.825,3.1,3.1,0,0,1,.656-1.981,2.133,2.133,0,0,1,1.765-.831,1.956,1.956,0,0,1,1.548.6A2.253,2.253,0,0,1-1088.989,694.341Zm-.881.01q0-1.482-1.24-1.482-1.265,0-1.493,1.54Z" transform="translate(1100.894 -690.268)" fill="#c5c8c9"/>
      <path id="Path_2893" data-name="Path 2893" d="M-1078.025,696.1q0,1.541-1.968,1.541a7.2,7.2,0,0,1-1.625-.174l.163-.775a4.1,4.1,0,0,0,1.488.264q1.149,0,1.149-.654a.592.592,0,0,0-.255-.5,4.013,4.013,0,0,0-.847-.42,4.29,4.29,0,0,1-1.087-.57,1.229,1.229,0,0,1-.5-.981,1.372,1.372,0,0,1,.454-1.031,1.946,1.946,0,0,1,1.382-.43,5.6,5.6,0,0,1,1.456.153l-.164.76a3.545,3.545,0,0,0-1.319-.227q-1.013,0-1.013.586a.581.581,0,0,0,.227.477,3.755,3.755,0,0,0,.886.441,4.329,4.329,0,0,1,1.055.549A1.25,1.25,0,0,1-1078.025,696.1Z" transform="translate(1094.499 -690.36)" fill="#c5c8c9"/>
      <path id="Path_2894" data-name="Path 2894" d="M-1070.454,695.188h-.955q.074-1.055.074-2.411a14.877,14.877,0,0,0-.185-2.558l1.055-.143q-.063,1.1-.063,2.7Q-1070.527,694.043-1070.454,695.188Zm.221-6.594a.683.683,0,0,1-.174.467.619.619,0,0,1-.491.2.528.528,0,0,1-.419-.172.606.606,0,0,1-.15-.414.657.657,0,0,1,.179-.459.64.64,0,0,1,.5-.2.516.516,0,0,1,.409.172A.591.591,0,0,1-1070.232,688.594Z" transform="translate(1089.058 -688.019)" fill="#c5c8c9"/>
      <path id="Path_2895" data-name="Path 2895" d="M-1061.626,691.163l-.084.728q-.981,0-1.081.316v.053a1.438,1.438,0,0,1,.337.939,1.83,1.83,0,0,1-.541,1.358,2.289,2.289,0,0,1-1.669.536,2.428,2.428,0,0,1-.8-.106.548.548,0,0,0-.259.459.434.434,0,0,0,.306.448,5.618,5.618,0,0,0,1.63.148q2,0,2,1.329a1.929,1.929,0,0,1-.781,1.572,3.144,3.144,0,0,1-2.02.622,2.8,2.8,0,0,1-1.812-.461,1.414,1.414,0,0,1-.541-1.111,1.553,1.553,0,0,1,.267-.949,1.092,1.092,0,0,1,.662-.443v-.047a.772.772,0,0,1-.417-.77,1.121,1.121,0,0,1,.528-.907v-.042a1.57,1.57,0,0,1-.533-.464,1.285,1.285,0,0,1-.253-.812,1.8,1.8,0,0,1,.554-1.366,2.238,2.238,0,0,1,1.6-.527,2.51,2.51,0,0,1,1.35.311h.058q.169-.891.886-.892A1.788,1.788,0,0,1-1061.626,691.163Zm-.944,6.567a.734.734,0,0,0-.361-.7,3.085,3.085,0,0,0-1.358-.2,11.09,11.09,0,0,1-1.234-.063.983.983,0,0,0-.644.912q0,1.287,1.688,1.287a2.485,2.485,0,0,0,1.4-.343A1.034,1.034,0,0,0-1062.571,697.73Zm-.733-4.315a1.1,1.1,0,0,0-.367-.889,1.4,1.4,0,0,0-.931-.309,1.348,1.348,0,0,0-.892.3,1.039,1.039,0,0,0-.359.846,1.066,1.066,0,0,0,.367.876,1.436,1.436,0,0,0,.941.3,1.345,1.345,0,0,0,.883-.293A1.015,1.015,0,0,0-1063.3,693.416Z" transform="translate(1086.587 -689.67)" fill="#c5c8c9"/>
      <path id="Path_2896" data-name="Path 2896" d="M-1049.2,697.5h-.96q.116-1.387.116-3.028a1.469,1.469,0,0,0-.33-1.11,1.357,1.357,0,0,0-.942-.3,2.078,2.078,0,0,0-1.382.544q0,1.8.021,3.893h-.96q.09-1.794.09-2.6a12.2,12.2,0,0,0-.232-2.395l.928-.132.1.643h.042a2.457,2.457,0,0,1,1.672-.707,2.108,2.108,0,0,1,1.356.388,1.689,1.689,0,0,1,.48,1.38q0,.1-.01.4c-.007.2-.011.329-.011.4Q-1049.224,695.759-1049.2,697.5Z" transform="translate(1079.502 -690.336)" fill="#c5c8c9"/>
      <path id="Path_2897" data-name="Path 2897" d="M-1040.032,695.188h-.955q.074-1.055.074-2.411a14.878,14.878,0,0,0-.184-2.558l1.055-.143q-.063,1.1-.063,2.7Q-1040.106,694.043-1040.032,695.188Zm.221-6.594a.682.682,0,0,1-.174.467.619.619,0,0,1-.491.2.528.528,0,0,1-.419-.172.606.606,0,0,1-.15-.414.657.657,0,0,1,.179-.459.64.64,0,0,1,.5-.2.516.516,0,0,1,.409.172A.591.591,0,0,1-1039.811,688.594Z" transform="translate(1072.669 -688.019)" fill="#c5c8c9"/>
      <path id="Path_2898" data-name="Path 2898" d="M-1031.419,697.5h-.96q.116-1.387.116-3.028a1.467,1.467,0,0,0-.33-1.11,1.355,1.355,0,0,0-.941-.3,2.076,2.076,0,0,0-1.382.544q0,1.8.021,3.893h-.96q.09-1.794.089-2.6a12.159,12.159,0,0,0-.232-2.395l.928-.132.1.643h.042a2.456,2.456,0,0,1,1.672-.707,2.107,2.107,0,0,1,1.356.388,1.688,1.688,0,0,1,.48,1.38q0,.1-.011.4c-.007.2-.01.329-.01.4Q-1031.44,695.759-1031.419,697.5Z" transform="translate(1069.921 -690.336)" fill="#c5c8c9"/>
      <path id="Path_2899" data-name="Path 2899" d="M-1018.522,691.163l-.084.728q-.982,0-1.082.316v.053a1.439,1.439,0,0,1,.338.939,1.832,1.832,0,0,1-.541,1.358,2.29,2.29,0,0,1-1.67.536,2.43,2.43,0,0,1-.8-.106.549.549,0,0,0-.258.459.435.435,0,0,0,.306.448,5.617,5.617,0,0,0,1.63.148q2,0,2,1.329a1.928,1.928,0,0,1-.781,1.572,3.143,3.143,0,0,1-2.02.622,2.8,2.8,0,0,1-1.812-.461,1.413,1.413,0,0,1-.541-1.111,1.553,1.553,0,0,1,.266-.949,1.1,1.1,0,0,1,.662-.443v-.047a.772.772,0,0,1-.417-.77,1.12,1.12,0,0,1,.527-.907v-.042a1.567,1.567,0,0,1-.532-.464,1.286,1.286,0,0,1-.253-.812,1.8,1.8,0,0,1,.554-1.366,2.239,2.239,0,0,1,1.6-.527,2.512,2.512,0,0,1,1.351.311h.058q.17-.891.886-.892A1.789,1.789,0,0,1-1018.522,691.163Zm-.945,6.567a.734.734,0,0,0-.361-.7,3.084,3.084,0,0,0-1.358-.2,11.093,11.093,0,0,1-1.234-.063.983.983,0,0,0-.643.912q0,1.287,1.688,1.287a2.483,2.483,0,0,0,1.4-.343A1.033,1.033,0,0,0-1019.467,697.73Zm-.733-4.315a1.1,1.1,0,0,0-.367-.889,1.4,1.4,0,0,0-.931-.309,1.347,1.347,0,0,0-.892.3,1.037,1.037,0,0,0-.359.846,1.068,1.068,0,0,0,.367.876,1.437,1.437,0,0,0,.941.3,1.347,1.347,0,0,0,.884-.293A1.016,1.016,0,0,0-1020.2,693.416Z" transform="translate(1063.365 -689.67)" fill="#c5c8c9"/>
      <path id="Path_2900" data-name="Path 2900" d="M-999.131,695.4h-1.145a1.953,1.953,0,0,0-.343-.649,5.661,5.661,0,0,0-.554-.733h-.042a3.141,3.141,0,0,1-2.7,1.535,2.125,2.125,0,0,1-1.445-.485,1.673,1.673,0,0,1-.56-1.334,2.529,2.529,0,0,1,.4-1.472,2.519,2.519,0,0,1,1.176-.892v-.037a1.971,1.971,0,0,1-.95-1.456,1.261,1.261,0,0,1,.522-1.076,2.021,2.021,0,0,1,1.234-.385,2,2,0,0,1,1.221.38,1.249,1.249,0,0,1,.514,1.065,1.377,1.377,0,0,1-.28.823,1.737,1.737,0,0,1-.77.6v.053a9.212,9.212,0,0,1,1.767,1.461h.032a3.072,3.072,0,0,0,.232-1.414h.992a2.884,2.884,0,0,1-.264.844,3.465,3.465,0,0,1-.553.975v.042a7.547,7.547,0,0,1,.944,1.134A2.8,2.8,0,0,1-999.131,695.4Zm-2.411-1.809v-.053q-.385-.405-.76-.749a7.065,7.065,0,0,0-1.561-1.139,1.747,1.747,0,0,0-1.113,1.714,1.4,1.4,0,0,0,.4,1.053,1.467,1.467,0,0,0,1.068.393A2.877,2.877,0,0,0-1001.542,693.595Zm-1.113-3.518a1,1,0,0,0-.261-.749.872.872,0,0,0-.63-.253.93.93,0,0,0-.6.208.672.672,0,0,0-.258.551q0,.712,1.076,1.213A1,1,0,0,0-1002.655,690.076Z" transform="translate(1053.716 -688.235)" fill="#c5c8c9"/>
      <path id="Path_2901" data-name="Path 2901" d="M-1102.889,718.444a2,2,0,0,1-.912,1.8,4.433,4.433,0,0,1-2.453.6q-.2,0-.338-.01,0,1.15.084,2.78h-1.012q.079-1.5.079-3.608,0-1.814-.079-3.26h.754q.121,0,.694-.016t.973-.016a2.569,2.569,0,0,1,1.612.462A1.518,1.518,0,0,1-1102.889,718.444Zm-.88.306q0-1.356-1.852-1.356a7.426,7.426,0,0,0-1.018.079q.037.86.037,2.68.185.01.454.011Q-1103.77,720.164-1103.77,718.75Z" transform="translate(1108.454 -703.476)" fill="#c5c8c9"/>
      <path id="Path_2902" data-name="Path 2902" d="M-1092.226,720.6l-.238.839a2.086,2.086,0,0,0-.765-.163,1.233,1.233,0,0,0-1.287.944q0,2.426.032,3.392h-.933q.084-1.672.084-2.6a11.292,11.292,0,0,0-.248-2.395l.923-.132a5.75,5.75,0,0,1,.1.775h.042a1.614,1.614,0,0,1,1.329-.839A3.331,3.331,0,0,1-1092.226,720.6Z" transform="translate(1102.022 -705.478)" fill="#c5c8c9"/>
      <path id="Path_2903" data-name="Path 2903" d="M-1082.3,722.884a2.808,2.808,0,0,1-.775,2.107,2.526,2.526,0,0,1-1.825.757,2.361,2.361,0,0,1-1.685-.67,2.481,2.481,0,0,1-.7-1.888,2.846,2.846,0,0,1,.778-2.126,2.525,2.525,0,0,1,1.828-.765,2.337,2.337,0,0,1,1.683.678A2.528,2.528,0,0,1-1082.3,722.884Zm-.912.185a2.64,2.64,0,0,0-.414-1.464,1.324,1.324,0,0,0-1.179-.641,1.324,1.324,0,0,0-1.168.607,2.46,2.46,0,0,0-.409,1.408,2.633,2.633,0,0,0,.414,1.467,1.329,1.329,0,0,0,1.184.638,1.317,1.317,0,0,0,1.166-.609A2.476,2.476,0,0,0-1083.212,723.069Z" transform="translate(1097.555 -705.411)" fill="#c5c8c9"/>
      <path id="Path_2904" data-name="Path 2904" d="M-1069.277,719.269l-.084.728q-.981,0-1.081.316v.053a1.438,1.438,0,0,1,.337.939,1.83,1.83,0,0,1-.541,1.358,2.288,2.288,0,0,1-1.669.535,2.427,2.427,0,0,1-.8-.106.548.548,0,0,0-.259.459.434.434,0,0,0,.306.448,5.616,5.616,0,0,0,1.63.148q2,0,2,1.329a1.929,1.929,0,0,1-.78,1.572,3.144,3.144,0,0,1-2.02.622,2.8,2.8,0,0,1-1.812-.461,1.414,1.414,0,0,1-.541-1.111,1.553,1.553,0,0,1,.267-.949,1.092,1.092,0,0,1,.662-.443v-.048a.772.772,0,0,1-.417-.77,1.121,1.121,0,0,1,.528-.907v-.042a1.57,1.57,0,0,1-.533-.464,1.285,1.285,0,0,1-.253-.812,1.8,1.8,0,0,1,.554-1.366,2.238,2.238,0,0,1,1.6-.527,2.512,2.512,0,0,1,1.35.311h.058q.169-.891.886-.892A1.791,1.791,0,0,1-1069.277,719.269Zm-.944,6.567a.734.734,0,0,0-.361-.7,3.086,3.086,0,0,0-1.358-.2,11.07,11.07,0,0,1-1.234-.063.983.983,0,0,0-.644.912q0,1.287,1.688,1.287a2.485,2.485,0,0,0,1.4-.343A1.034,1.034,0,0,0-1070.222,725.836Zm-.733-4.315a1.1,1.1,0,0,0-.367-.889,1.4,1.4,0,0,0-.931-.309,1.348,1.348,0,0,0-.892.3,1.038,1.038,0,0,0-.359.846,1.066,1.066,0,0,0,.367.876,1.436,1.436,0,0,0,.941.3,1.344,1.344,0,0,0,.883-.292A1.016,1.016,0,0,0-1070.955,721.522Z" transform="translate(1090.709 -704.813)" fill="#c5c8c9"/>
      <path id="Path_2905" data-name="Path 2905" d="M-1058.2,720.6l-.238.839a2.086,2.086,0,0,0-.765-.163,1.233,1.233,0,0,0-1.287.944q0,2.426.032,3.392h-.934q.084-1.672.084-2.6a11.292,11.292,0,0,0-.248-2.395l.923-.132a5.737,5.737,0,0,1,.1.775h.042a1.615,1.615,0,0,1,1.329-.839A3.331,3.331,0,0,1-1058.2,720.6Z" transform="translate(1083.692 -705.478)" fill="#c5c8c9"/>
      <path id="Path_2906" data-name="Path 2906" d="M-1049.2,725.611l-.828.031a2.073,2.073,0,0,1-.063-.49h-.053a2.524,2.524,0,0,1-1.767.591,1.605,1.605,0,0,1-1.044-.356,1.234,1.234,0,0,1-.438-1.016,1.533,1.533,0,0,1,.685-1.305,4.771,4.771,0,0,1,2.548-.52,2.348,2.348,0,0,0,.016-.29.944.944,0,0,0-.345-.865,2.01,2.01,0,0,0-1.047-.217,6.536,6.536,0,0,0-1.63.206l.089-.728a6.636,6.636,0,0,1,1.82-.227,2.362,2.362,0,0,1,1.451.388,1.555,1.555,0,0,1,.512,1.321q0,.248-.024.9t-.024.868A9.2,9.2,0,0,0-1049.2,725.611Zm-.934-1.023q-.026-.8-.026-1.44a5.845,5.845,0,0,0-1.509.148,1.027,1.027,0,0,0-.865,1.007q0,.717,1.012.718A2.093,2.093,0,0,0-1050.132,724.587Z" transform="translate(1079.292 -705.478)" fill="#c5c8c9"/>
      <path id="Path_2907" data-name="Path 2907" d="M-1034.968,722.556a1.544,1.544,0,0,0-.293-1.116,1.394,1.394,0,0,0-.963-.272,1.761,1.761,0,0,0-1.166.554q-.021.643-.021,1.261,0,.881.032,2.627h-.96q.115-1.5.116-3.054a1.544,1.544,0,0,0-.292-1.116,1.349,1.349,0,0,0-.936-.272,1.757,1.757,0,0,0-1.234.554q0,1.672.021,3.888h-.96q.1-1.794.1-2.6a12.044,12.044,0,0,0-.238-2.395l.928-.132.095.638h.053a2.092,2.092,0,0,1,1.524-.7q1.25,0,1.609.7h.058a2.408,2.408,0,0,1,1.572-.7,2,2,0,0,1,1.339.391,1.745,1.745,0,0,1,.454,1.377q0,.1-.011.4c-.007.2-.011.329-.011.4q0,.881.021,2.627h-.96Q-1034.967,724.228-1034.968,722.556Z" transform="translate(1073.026 -705.478)" fill="#c5c8c9"/>
      <path id="Path_2908" data-name="Path 2908" d="M-1015.789,722.556a1.545,1.545,0,0,0-.292-1.116,1.4,1.4,0,0,0-.963-.272,1.761,1.761,0,0,0-1.166.554q-.021.643-.021,1.261,0,.881.032,2.627h-.96q.116-1.5.116-3.054a1.547,1.547,0,0,0-.292-1.116,1.35,1.35,0,0,0-.937-.272,1.757,1.757,0,0,0-1.234.554q0,1.672.021,3.888h-.96q.1-1.794.1-2.6a12.048,12.048,0,0,0-.238-2.395l.928-.132.095.638h.053a2.094,2.094,0,0,1,1.524-.7q1.25,0,1.609.7h.058a2.409,2.409,0,0,1,1.572-.7,2,2,0,0,1,1.34.391,1.745,1.745,0,0,1,.454,1.377q0,.1-.011.4c-.007.2-.011.329-.011.4q0,.881.021,2.627h-.96Q-1015.789,724.228-1015.789,722.556Z" transform="translate(1062.693 -705.478)" fill="#c5c8c9"/>
      <path id="Path_2909" data-name="Path 2909" d="M-1002.213,723.294h-.955q.074-1.055.074-2.411a14.877,14.877,0,0,0-.185-2.558l1.055-.143q-.063,1.1-.063,2.7Q-1002.286,722.149-1002.213,723.294Zm.221-6.594a.682.682,0,0,1-.174.467.619.619,0,0,1-.491.2.528.528,0,0,1-.419-.172.606.606,0,0,1-.15-.414.657.657,0,0,1,.179-.459.641.641,0,0,1,.5-.2.516.516,0,0,1,.409.172A.592.592,0,0,1-1001.991,716.7Z" transform="translate(1052.293 -703.161)" fill="#c5c8c9"/>
      <path id="Path_2910" data-name="Path 2910" d="M-993.6,725.611h-.96q.116-1.387.116-3.028a1.47,1.47,0,0,0-.329-1.11,1.357,1.357,0,0,0-.942-.3,2.08,2.08,0,0,0-1.382.543q0,1.8.021,3.893h-.96q.09-1.794.089-2.6a12.164,12.164,0,0,0-.232-2.395l.928-.132.1.643h.042a2.455,2.455,0,0,1,1.672-.707,2.109,2.109,0,0,1,1.356.388,1.689,1.689,0,0,1,.48,1.38q0,.1-.011.4c-.007.2-.011.329-.011.4Q-993.62,723.864-993.6,725.611Z" transform="translate(1049.545 -705.478)" fill="#c5c8c9"/>
      <path id="Path_2911" data-name="Path 2911" d="M-980.7,719.269l-.084.728q-.981,0-1.082.316v.053a1.438,1.438,0,0,1,.338.939,1.832,1.832,0,0,1-.541,1.358,2.289,2.289,0,0,1-1.67.535,2.43,2.43,0,0,1-.8-.106.549.549,0,0,0-.258.459.434.434,0,0,0,.306.448,5.615,5.615,0,0,0,1.63.148q2,0,2,1.329a1.929,1.929,0,0,1-.781,1.572,3.142,3.142,0,0,1-2.02.622,2.8,2.8,0,0,1-1.812-.461,1.413,1.413,0,0,1-.541-1.111,1.554,1.554,0,0,1,.266-.949,1.1,1.1,0,0,1,.662-.443v-.048a.772.772,0,0,1-.417-.77,1.12,1.12,0,0,1,.528-.907v-.042a1.561,1.561,0,0,1-.533-.464,1.285,1.285,0,0,1-.253-.812,1.8,1.8,0,0,1,.554-1.366,2.237,2.237,0,0,1,1.6-.527,2.513,2.513,0,0,1,1.35.311h.058q.169-.891.887-.892A1.79,1.79,0,0,1-980.7,719.269Zm-.944,6.567a.734.734,0,0,0-.362-.7,3.085,3.085,0,0,0-1.358-.2,11.078,11.078,0,0,1-1.234-.063.983.983,0,0,0-.643.912q0,1.287,1.688,1.287a2.486,2.486,0,0,0,1.4-.343A1.034,1.034,0,0,0-981.647,725.836Zm-.733-4.315a1.1,1.1,0,0,0-.367-.889,1.4,1.4,0,0,0-.931-.309,1.347,1.347,0,0,0-.892.3,1.037,1.037,0,0,0-.359.846,1.068,1.068,0,0,0,.367.876,1.437,1.437,0,0,0,.941.3,1.346,1.346,0,0,0,.884-.292A1.017,1.017,0,0,0-982.38,721.522Z" transform="translate(1042.989 -704.813)" fill="#c5c8c9"/>
      <path id="Path_2912" data-name="Path 2912" d="M-1103,751.751h-1.113a11.628,11.628,0,0,0-.665-2.22h-3.044a11.074,11.074,0,0,0-.654,2.22h-1.066a36.247,36.247,0,0,1,1.361-3.373,25.19,25.19,0,0,0,1.361-3.495h1.224a25.448,25.448,0,0,0,1.3,3.445A26.756,26.756,0,0,1-1103,751.751Zm-2.02-2.912q-1.24-3.1-1.239-3.292h-.058q0,.164-1.282,3.292Z" transform="translate(1109.545 -718.655)" fill="#c5c8c9"/>
      <path id="Path_2913" data-name="Path 2913" d="M-1089.073,750.993a3.207,3.207,0,0,1-.651,2,2.147,2.147,0,0,1-1.812.857,1.708,1.708,0,0,1-1.277-.348h-.053q0,1.467.031,2.617h-.992q.122-1.4.122-3.466a22.444,22.444,0,0,0-.264-3.935l.928-.132.079.522h.053a2.071,2.071,0,0,1,1.656-.6,1.926,1.926,0,0,1,1.593.736A2.722,2.722,0,0,1-1089.073,750.993Zm-.939.127a2.187,2.187,0,0,0-.411-1.338,1.354,1.354,0,0,0-1.155-.556,1.558,1.558,0,0,0-1.361.575q.084,1.772.084,3.043a1.671,1.671,0,0,0,1.113.359,1.483,1.483,0,0,0,1.3-.612A2.5,2.5,0,0,0-1090.012,751.12Z" transform="translate(1101.153 -720.608)" fill="#c5c8c9"/>
      <path id="Path_2914" data-name="Path 2914" d="M-1076.059,750.993a3.21,3.21,0,0,1-.651,2,2.148,2.148,0,0,1-1.812.857,1.708,1.708,0,0,1-1.277-.348h-.053q0,1.467.032,2.617h-.992q.121-1.4.121-3.466a22.446,22.446,0,0,0-.264-3.935l.928-.132.079.522h.053a2.071,2.071,0,0,1,1.656-.6,1.927,1.927,0,0,1,1.593.736A2.724,2.724,0,0,1-1076.059,750.993Zm-.939.127a2.187,2.187,0,0,0-.411-1.338,1.354,1.354,0,0,0-1.155-.556,1.559,1.559,0,0,0-1.361.575q.084,1.772.084,3.043a1.671,1.671,0,0,0,1.113.359,1.482,1.482,0,0,0,1.3-.612A2.5,2.5,0,0,0-1077,751.12Z" transform="translate(1094.141 -720.608)" fill="#c5c8c9"/>
      <path id="Path_2915" data-name="Path 2915" d="M-1066.742,751.042h-1.013q.095-1.741.095-3.935a32.4,32.4,0,0,0-.153-3.487l1.071-.053q-.1,1.435-.1,3.54Q-1066.843,749.276-1066.742,751.042Z" transform="translate(1087.062 -717.946)" fill="#c5c8c9"/>
      <path id="Path_2916" data-name="Path 2916" d="M-1061.51,751.4h-.955q.073-1.054.073-2.41a14.878,14.878,0,0,0-.184-2.558l1.055-.143q-.063,1.1-.063,2.7Q-1061.584,750.255-1061.51,751.4Zm.221-6.593a.684.684,0,0,1-.174.467.62.62,0,0,1-.491.2.528.528,0,0,1-.419-.172.6.6,0,0,1-.15-.414.656.656,0,0,1,.179-.458.641.641,0,0,1,.5-.2.515.515,0,0,1,.409.172A.593.593,0,0,1-1061.289,744.806Z" transform="translate(1084.24 -718.304)" fill="#c5c8c9"/>
      <path id="Path_2917" data-name="Path 2917" d="M-1053.6,752.91l-.053.707a2.316,2.316,0,0,1-1.145.243,2.759,2.759,0,0,1-2.089-.754,2.535,2.535,0,0,1-.723-1.82,2.743,2.743,0,0,1,.76-1.941,2.623,2.623,0,0,1,2.01-.813,3.429,3.429,0,0,1,1.023.127l-.142.828a3.21,3.21,0,0,0-1.124-.206,1.483,1.483,0,0,0-1.192.523,1.95,1.95,0,0,0-.443,1.308,2.018,2.018,0,0,0,.528,1.424,1.933,1.933,0,0,0,1.493.57A4.4,4.4,0,0,0-1053.6,752.91Z" transform="translate(1081.566 -720.62)" fill="#c5c8c9"/>
      <path id="Path_2918" data-name="Path 2918" d="M-1042.966,753.716l-.828.032a2.055,2.055,0,0,1-.064-.49h-.053a2.525,2.525,0,0,1-1.767.591,1.6,1.6,0,0,1-1.044-.356,1.234,1.234,0,0,1-.438-1.016,1.533,1.533,0,0,1,.686-1.305,4.772,4.772,0,0,1,2.548-.52,2.328,2.328,0,0,0,.016-.29.943.943,0,0,0-.345-.865,2.007,2.007,0,0,0-1.047-.217,6.54,6.54,0,0,0-1.63.206l.09-.728a6.634,6.634,0,0,1,1.82-.227,2.362,2.362,0,0,1,1.45.388,1.554,1.554,0,0,1,.512,1.321q0,.248-.024.9t-.023.868A9.2,9.2,0,0,0-1042.966,753.716Zm-.934-1.023q-.026-.8-.026-1.44a5.843,5.843,0,0,0-1.509.148,1.027,1.027,0,0,0-.865,1.007q0,.717,1.012.717A2.092,2.092,0,0,0-1043.9,752.693Z" transform="translate(1075.935 -720.62)" fill="#c5c8c9"/>
      <path id="Path_2919" data-name="Path 2919" d="M-1032.814,751.461l-.063.686a2.285,2.285,0,0,1-.786.153,1.5,1.5,0,0,1-1.3-.483,3.106,3.106,0,0,1-.348-1.727q0-.807.011-2.1-.3,0-.87.031l.031-.765q.5.032.9.032,0-.317.053-1.5l.828-.084q-.089,1.108-.089,1.588.517,0,1.519-.053l-.037.786q-.95-.031-1.524-.031-.011.8-.011,1.793a2.971,2.971,0,0,0,.229,1.438.943.943,0,0,0,.852.351A2.6,2.6,0,0,0-1032.814,751.461Z" transform="translate(1070.013 -719.092)" fill="#c5c8c9"/>
      <path id="Path_2920" data-name="Path 2920" d="M-1025.932,751.4h-.955q.073-1.054.074-2.41a14.927,14.927,0,0,0-.184-2.558l1.055-.143q-.063,1.1-.063,2.7Q-1026.005,750.255-1025.932,751.4Zm.221-6.593a.685.685,0,0,1-.174.467.619.619,0,0,1-.491.2.528.528,0,0,1-.419-.172.606.606,0,0,1-.15-.414.656.656,0,0,1,.179-.458.64.64,0,0,1,.5-.2.516.516,0,0,1,.409.172A.593.593,0,0,1-1025.71,744.806Z" transform="translate(1065.072 -718.304)" fill="#c5c8c9"/>
      <path id="Path_2921" data-name="Path 2921" d="M-1017.044,750.99a2.809,2.809,0,0,1-.775,2.107,2.526,2.526,0,0,1-1.825.757,2.36,2.36,0,0,1-1.685-.67,2.482,2.482,0,0,1-.7-1.888,2.844,2.844,0,0,1,.778-2.126,2.524,2.524,0,0,1,1.828-.765,2.337,2.337,0,0,1,1.683.678A2.528,2.528,0,0,1-1017.044,750.99Zm-.912.185a2.64,2.64,0,0,0-.414-1.464,1.324,1.324,0,0,0-1.179-.641,1.326,1.326,0,0,0-1.169.607,2.463,2.463,0,0,0-.409,1.408,2.635,2.635,0,0,0,.414,1.467,1.33,1.33,0,0,0,1.184.638,1.318,1.318,0,0,0,1.166-.609A2.477,2.477,0,0,0-1017.956,751.175Z" transform="translate(1062.398 -720.553)" fill="#c5c8c9"/>
      <path id="Path_2922" data-name="Path 2922" d="M-1004.235,753.716h-.96q.115-1.386.116-3.028a1.469,1.469,0,0,0-.329-1.11,1.357,1.357,0,0,0-.942-.3,2.079,2.079,0,0,0-1.382.543q0,1.8.021,3.893h-.96q.09-1.793.09-2.595a12.2,12.2,0,0,0-.232-2.395l.928-.132.1.643h.042a2.455,2.455,0,0,1,1.672-.707,2.109,2.109,0,0,1,1.356.388,1.689,1.689,0,0,1,.48,1.38c0,.067,0,.2-.011.4s-.01.329-.01.4Q-1004.255,751.97-1004.235,753.716Z" transform="translate(1055.275 -720.62)" fill="#c5c8c9"/>
      <path id="Path_2923" data-name="Path 2923" d="M-992.824,752.312q0,1.541-1.968,1.541a7.2,7.2,0,0,1-1.625-.174l.163-.775a4.1,4.1,0,0,0,1.487.264q1.15,0,1.15-.654a.593.593,0,0,0-.255-.5,4.019,4.019,0,0,0-.847-.42,4.277,4.277,0,0,1-1.087-.57,1.23,1.23,0,0,1-.5-.981,1.372,1.372,0,0,1,.454-1.031,1.946,1.946,0,0,1,1.382-.43,5.6,5.6,0,0,1,1.456.153l-.163.76a3.546,3.546,0,0,0-1.319-.227q-1.013,0-1.013.585a.582.582,0,0,0,.227.477,3.775,3.775,0,0,0,.886.44,4.329,4.329,0,0,1,1.055.549A1.25,1.25,0,0,1-992.824,752.312Z" transform="translate(1048.596 -720.645)" fill="#c5c8c9"/>
    </g>
    <g id="Group_5768" data-name="Group 5768" transform="translate(-1231.011 487.215)">
      <path id="Path_2924" data-name="Path 2924" d="M-1084.274,487.215h7.573v35.442h-6.665l-16.964-22.416v22.416h-7.573V487.215h23.629Zm0,21.811V494.788h-10.906Z" transform="translate(1108.66 -487.215)" fill="#fff"/>
      <path id="Path_2925" data-name="Path 2925" d="M-998.983,498.24a17.865,17.865,0,0,0-3.782-5.635,17.925,17.925,0,0,0-5.628-3.782,17.277,17.277,0,0,0-6.921-1.392,17.214,17.214,0,0,0-6.914,1.392,17.873,17.873,0,0,0-5.635,3.782,17.866,17.866,0,0,0-3.782,5.635,17.213,17.213,0,0,0-1.392,6.914,17.213,17.213,0,0,0,1.392,6.914,17.865,17.865,0,0,0,3.782,5.635,17.875,17.875,0,0,0,5.635,3.782,17.215,17.215,0,0,0,6.914,1.392,17.278,17.278,0,0,0,6.921-1.392,17.927,17.927,0,0,0,5.628-3.782,17.865,17.865,0,0,0,3.782-5.635,17.2,17.2,0,0,0,1.393-6.914A17.206,17.206,0,0,0-998.983,498.24Zm-8.464,14.781a11.065,11.065,0,0,1-7.867,3.26,11.065,11.065,0,0,1-7.866-3.26,11.083,11.083,0,0,1-3.26-7.867,11.126,11.126,0,0,1,11.127-11.127,11.065,11.065,0,0,1,7.867,3.26,11.083,11.083,0,0,1,3.26,7.867A11.083,11.083,0,0,1-1007.447,513.021Z" transform="translate(1068.325 -487.331)" fill="#fff"/>
      <path id="Path_2926" data-name="Path 2926" d="M-942.421,522.952V494.679h-8.734v-6.917h24.941v6.917H-935.2v28.273Z" transform="translate(1024.211 -487.51)" fill="#fff"/>
      <path id="Path_2927" data-name="Path 2927" d="M-1091.874,626.7a17.2,17.2,0,0,1-6.867-1.388,17.817,17.817,0,0,1-5.629-3.786,17.81,17.81,0,0,1-3.786-5.629,17.207,17.207,0,0,1-1.389-6.866,17.335,17.335,0,0,1,1.389-6.917,18.127,18.127,0,0,1,3.786-5.654,17.621,17.621,0,0,1,5.629-3.812,17.21,17.21,0,0,1,6.867-1.388,17.25,17.25,0,0,1,6.16,1.11,20.2,20.2,0,0,1,5.5,3.181l-5.2,6.109a8.675,8.675,0,0,0-3-1.641,11.943,11.943,0,0,0-3.459-.48,8.9,8.9,0,0,0-3.635.757,9.788,9.788,0,0,0-3,2.045,9.823,9.823,0,0,0-2.044,3,9.031,9.031,0,0,0-.757,3.686,8.9,8.9,0,0,0,.757,3.635,9.806,9.806,0,0,0,2.044,3,9.8,9.8,0,0,0,3,2.045,8.9,8.9,0,0,0,3.635.757,10.217,10.217,0,0,0,6.462-2.121l5.2,6.058a16.425,16.425,0,0,1-5.377,3.181A18.254,18.254,0,0,1-1091.874,626.7Z" transform="translate(1109.545 -543.272)" fill="#fff"/>
      <path id="Path_2928" data-name="Path 2928" d="M-1011.7,626.764h-8.487l-11.006-15.552h5.476a4.727,4.727,0,0,0,2.436-.628,6.41,6.41,0,0,0,1.831-1.642,7.138,7.138,0,0,0,1.135-2.247,8.355,8.355,0,0,0,.386-2.5,5.982,5.982,0,0,0-1.679-4.44,5.967,5.967,0,0,0-4.41-1.664h-5.174v28.676h-7.322V591.371h13.358a13.6,13.6,0,0,1,5.136.863,10.938,10.938,0,0,1,3.729,2.473,14.349,14.349,0,0,1,1.339,1.71,12.958,12.958,0,0,1,1.18,2.2,15.87,15.87,0,0,1,.832,2.526,11.271,11.271,0,0,1,.333,2.7,15.763,15.763,0,0,1-.507,3.986,15.217,15.217,0,0,1-1.376,3.51,12.714,12.714,0,0,1-2.111,2.829,8.967,8.967,0,0,1-2.677,1.891Z" transform="translate(1071.276 -543.33)" fill="#fff"/>
      <path id="Path_2929" data-name="Path 2929" d="M-968.49,627.05h-6.967l12.47-35.24h6.967l12.471,35.24h-7.623l-8.482-25.193Z" transform="translate(1037.304 -543.566)" fill="#fff"/>
      <path id="Path_2930" data-name="Path 2930" d="M-889.019,620.588a5.506,5.506,0,0,0,3.206-.858,2.779,2.779,0,0,0,1.237-2.423,3.367,3.367,0,0,0-.227-1.237,3.043,3.043,0,0,0-.858-1.136,7.815,7.815,0,0,0-1.818-1.111q-1.187-.555-3.054-1.211a40.486,40.486,0,0,1-4.14-1.869,12.98,12.98,0,0,1-3.054-2.171,8.259,8.259,0,0,1-1.893-2.828,10.151,10.151,0,0,1-.657-3.837,10.47,10.47,0,0,1,.783-4.089,8.845,8.845,0,0,1,2.272-3.206,10.5,10.5,0,0,1,3.56-2.07,13.863,13.863,0,0,1,4.645-.732,18.818,18.818,0,0,1,5.781.934,12.8,12.8,0,0,1,5.175,3.206l-3.888,5.352a20.466,20.466,0,0,0-3.559-2.146,9.049,9.049,0,0,0-3.862-.833,4.343,4.343,0,0,0-2.8.833,2.63,2.63,0,0,0-1.035,2.146,2.945,2.945,0,0,0,.278,1.288,3.458,3.458,0,0,0,1.01,1.161,11.6,11.6,0,0,0,1.995,1.212,34.878,34.878,0,0,0,3.282,1.388,27.608,27.608,0,0,1,3.912,1.843,12.527,12.527,0,0,1,2.853,2.222,8.682,8.682,0,0,1,1.767,2.777,9.669,9.669,0,0,1,.606,3.56,10.45,10.45,0,0,1-.883,4.367,9.242,9.242,0,0,1-2.424,3.256,10.853,10.853,0,0,1-3.659,2.02,14.263,14.263,0,0,1-4.544.707,19.255,19.255,0,0,1-6.639-1.187,18.114,18.114,0,0,1-6.135-3.862l4.14-5.3a21,21,0,0,0,3.838,2.7A9.807,9.807,0,0,0-889.019,620.588Z" transform="translate(997.617 -543.566)" fill="#fff"/>
      <path id="Path_2931" data-name="Path 2931" d="M-822.928,591.372h7.321v35.341h-7.321V608.008h-11.561v18.706h-7.321V591.372h7.321v9.921h11.561Z" transform="translate(965.301 -543.33)" fill="#fff"/>
    </g>
    <g id="Group_5777" data-name="Group 5777" transform="translate(-1335 487.215)">
      <g id="Group_5776" data-name="Group 5776" transform="translate(0 0)">
        <g id="Group_5769" data-name="Group 5769" transform="translate(45.482)">
          <path id="Path_2932" data-name="Path 2932" d="M-1198.492,517.536a7.56,7.56,0,0,1-2.219,5.361,7.56,7.56,0,0,1-5.361,2.22,7.56,7.56,0,0,1-5.361-2.22,7.561,7.561,0,0,1-2.219-5.329v-.032a15.193,15.193,0,0,0-15.161-15.161h-.032a7.56,7.56,0,0,1-5.329-2.22,7.56,7.56,0,0,1-2.219-5.361,7.58,7.58,0,0,1,7.58-7.58,7.559,7.559,0,0,1,5.361,2.22,7.559,7.559,0,0,1,2.22,5.329v.032a15.193,15.193,0,0,0,15.161,15.161h.032a7.562,7.562,0,0,1,5.329,2.22A7.561,7.561,0,0,1-1198.492,517.536Z" transform="translate(1236.393 -487.215)" fill="#fdfdfd"/>
        </g>
        <g id="Group_5771" data-name="Group 5771" transform="translate(22.741)">
          <g id="Group_5770" data-name="Group 5770">
            <path id="Path_2933" data-name="Path 2933" d="M-1247.8,517.536a7.56,7.56,0,0,1-2.22,5.361,7.559,7.559,0,0,1-5.361,2.22,7.561,7.561,0,0,1-5.361-2.22,7.561,7.561,0,0,1-2.219-5.329v-.032a15.193,15.193,0,0,0-15.161-15.161h-.032a7.558,7.558,0,0,1-5.328-2.22,7.559,7.559,0,0,1-2.22-5.361,7.58,7.58,0,0,1,7.581-7.58,7.56,7.56,0,0,1,5.36,2.22,7.56,7.56,0,0,1,2.22,5.329v.032a15.192,15.192,0,0,0,15.16,15.161h.032a7.559,7.559,0,0,1,5.328,2.22A7.561,7.561,0,0,1-1247.8,517.536Z" transform="translate(1285.697 -487.215)" fill="#fdfdfd"/>
          </g>
        </g>
        <g id="Group_5772" data-name="Group 5772" transform="translate(22.741 22.741)">
          <path id="Path_2934" data-name="Path 2934" d="M-1247.8,566.839a7.56,7.56,0,0,1-2.22,5.361,7.559,7.559,0,0,1-5.361,2.219,7.561,7.561,0,0,1-5.361-2.219,7.559,7.559,0,0,1-2.219-5.328v-.032a15.193,15.193,0,0,0-15.161-15.161h-.032a7.56,7.56,0,0,1-5.328-2.22,7.56,7.56,0,0,1-2.22-5.361,7.58,7.58,0,0,1,7.581-7.581,7.562,7.562,0,0,1,5.36,2.219,7.561,7.561,0,0,1,2.22,5.329v.032a15.192,15.192,0,0,0,15.16,15.161h.032a7.557,7.557,0,0,1,5.328,2.219A7.56,7.56,0,0,1-1247.8,566.839Z" transform="translate(1285.697 -536.518)" fill="#fdfdfd"/>
        </g>
        <g id="Group_5774" data-name="Group 5774" transform="translate(0 22.741)">
          <g id="Group_5773" data-name="Group 5773">
            <path id="Path_2935" data-name="Path 2935" d="M-1297.1,566.839a7.56,7.56,0,0,1-2.219,5.361,7.56,7.56,0,0,1-5.36,2.219,7.559,7.559,0,0,1-5.361-2.219,7.558,7.558,0,0,1-2.22-5.328v-.032a15.192,15.192,0,0,0-15.161-15.161h-.032a7.562,7.562,0,0,1-5.329-2.22A7.56,7.56,0,0,1-1335,544.1a7.58,7.58,0,0,1,7.58-7.581,7.563,7.563,0,0,1,5.361,2.219,7.562,7.562,0,0,1,2.219,5.329v.032a15.192,15.192,0,0,0,15.161,15.161h.032a7.559,7.559,0,0,1,5.329,2.219A7.56,7.56,0,0,1-1297.1,566.839Z" transform="translate(1335 -536.518)" fill="#fdfdfd"/>
          </g>
        </g>
        <g id="Group_5775" data-name="Group 5775" transform="translate(0 45.482)">
          <path id="Path_2936" data-name="Path 2936" d="M-1297.1,616.143a7.561,7.561,0,0,1-2.219,5.361,7.562,7.562,0,0,1-5.36,2.219,7.561,7.561,0,0,1-5.361-2.219,7.56,7.56,0,0,1-2.22-5.329v-.032a15.193,15.193,0,0,0-15.161-15.161h-.032a7.559,7.559,0,0,1-5.329-2.219A7.56,7.56,0,0,1-1335,593.4a7.58,7.58,0,0,1,7.58-7.58,7.561,7.561,0,0,1,5.361,2.219,7.56,7.56,0,0,1,2.219,5.328v.032a15.193,15.193,0,0,0,15.161,15.161h.032a7.56,7.56,0,0,1,5.329,2.219A7.56,7.56,0,0,1-1297.1,616.143Z" transform="translate(1335 -585.822)" fill="#fdfdfd"/>
        </g>
      </g>
    </g>
  </g>
</svg>
